<?xml version="1.0" encoding="UTF-8"?>
<svg version="1.1" viewBox="0 0 1888 1972" width="1280" height="1280" xmlns="http://www.w3.org/2000/svg">
<path transform="translate(1192,144)" d="m0 0h16l6 3v8l-14 37-18 44-16 39-13 32-19 46-17 42-22 55-19 46-14 37-13 35-16 41-15 35-12 32-10 24-15 37-13 35-18 44-13 32-18 42-15 37-11 26-13 31-14 34-16 42-36 90-13 31-13 32-11 28-9 21-12 31-11 26-14 30-15 30-14 24-13 21-10 14-14 18-12 14-9 10-7 8-9 9-7 8-12 12-11 9-13 11-22 18-17 12-18 12-22 13-13 8-34 17-24 11-24 9-30 10-35 9-27 6-28 4-39 4h-16l-4-5v-8l5-16 13-32 14-34 12-29 11-27 9-24 40-100 8-19 50-125 11-28 12-29 15-38 11-27 21-53 17-42 17-41 11-26 19-49 16-39 18-46 20-51 10-26 14-35 15-36 9-24 10-24 14-35 11-28 20-49 8-20 13-29 16-32 13-23 9-14 10-17 10-15 13-17 11-12 10-13 12-13 25-25 8-7 11-10 11-9 16-13 16-12 17-11 20-12 21-12 31-15 32-13 36-12 34-8 52-9 35-6z" fill="#FEFEFE"/>
<path transform="translate(958,1139)" d="m0 0h23l26 1 246 1h171l35-1h95l49 1 11 1 5 3 6 9 15 37 2 7-1 5-2 2-4 1-25 1-80 1-41 2-18 2v11l14 34 13 29 13 32 9 27 5 24 3 24 1 11v23l-3 24-5 23-5 16-9 24-10 20-10 17-10 15-9 12-9 10-7 8-11 11-14 11-15 10-18 10-19 9-19 7-21 7-33 6-9 1h-14l-5-2-6-7-8-18-11-29-14-35-16-41-11-27-17-41-20-50-16-39-13-32-12-30-11-28-14-39-12-30-4-5-6-3-5-1-66-2h-31l-10-2-7-6-12-29-7-16-1-3v-8l4-4z" fill="#FEFEFE"/>
<path transform="translate(1164,465)" d="m0 0 5 3 14 29 11 27 18 51 15 38 14 34 12 30 13 31 19 45 19 49 18 44 16 40 13 36 12 29 11 28 11 26 10 24 10 22v8l-6 4-3 1h-30l-22-1h-307l-8-4-6-8-7-19-11-30-11-26-12-25-4-13v-16l6-20 12-29 16-41 14-34 11-26 13-32 10-24 11-28 11-31 11-27 13-33 24-60 11-28 13-34 5-7z" fill="#FEFEFE"/>
</svg>
